# xmcd
#
# Track frame offsets:
#	150
#	37725
#	58215
#	80106
#	114500
#	138779
#	166559
#	199772
#	223878
#	248189
#
# Disc length: 3811 seconds
#
# Revision: 2
# Processed by: cddbd v1.5.1PL2 Copyright (c) Steve Scherf et al.
# Submitted via: audiograbber 1.83.01
#
DISCID=870ee10a
DTITLE=Various Artist - Sugarhill Club Classics III  CD 1
DYEAR=2001
DGENRE=Rap
TTITLE0=Grandmaster Flash and The Furios Five - The Birthday Party
TTITLE1=The Sugarhill Gang - The Downbeat
TTITLE2=Trouble Funk - Get On Up
TTITLE3=The Sequence - Simon Says
TTITLE4=West Street Mob - Sing A Simple Song
TTITLE5=Crash Crew - We Want To Rock
TTITLE6=Park Avenue - Tear Down The Rock House
TTITLE7=Busy Bee - Busy Bee's Groove
TTITLE8=Jocko - Everybody's Uptight
TTITLE9=Sylvia - It's Good To Be The Queen
EXTD=
EXTT0=
EXTT1=
EXTT2=
EXTT3=
EXTT4=
EXTT5=
EXTT6=
EXTT7=
EXTT8=
EXTT9=
PLAYORDER=
